<?xml version="1.0" encoding="UTF-8"?>
<svg id="Layer_1" data-name="Layer 1" xmlns="http://www.w3.org/2000/svg" width="886.01" height="336.31" viewBox="0 0 886.01 336.31">
  <defs>
    <style>
      .cls-1 {
        fill: #000;
        stroke-width: 0px;
      }
    </style>
  </defs>
  <path class="cls-1" d="M461.1,161.23c14.46-15,28.67-29.73,44.24-45.88-11.44,0-21.05-.15-30.65.15-1.55.05-3.25,1.88-4.51,3.24-12.82,13.8-25.58,27.65-38.3,41.54-1.71,1.87-3.08,4.05-4.61,6.08l-1.9-1.08v-49.89c-7.62,0-14.49-.27-21.3.28-1.08.09-2.63,3.91-2.65,6.01-.17,26.41-.09,52.82-.07,79.23,0,10.37,0,20.74,0,32.09-7.79,0-15.1.25-22.35-.27-1.09-.08-2.71-3.83-2.72-5.89-.18-22.51-.09-45.03-.09-67.54,0-12.34,0-24.68-.06-37.02,0-2.11-.23-4.21-.36-6.59h-21.63v75.38c-.49.17-.98.34-1.46.51-4.81-7.74-9.64-15.47-14.42-23.23-9.87-16.03-19.81-32.02-29.48-48.17-2.15-3.58-4.5-5.03-8.77-5.01-17.66.08-17.66-.07-17.66,17.52,0,30.52,0,61.05,0,91.57,0,2.56,0,5.13,0,8.24h-22.71v-116.75h-23.64v115.83c-9.22,3.09-11.77,2.3-16.22-4.74-4.75-7.5-9.02-15.34-14.27-22.46-6.06-8.21-12.97-15.79-19.52-23.65,1.3-.38,3.51-1,5.7-1.69,15.42-4.83,23.81-17.55,22.33-33.83-1.49-16.35-11.25-27.75-27.5-28.53-22.62-1.07-45.34-.27-68.73-.27v116.05h-58.78c.37-.2,1.05-.78,1.82-.95,21.92-4.9,31.85-20.56,35.29-40.92,2.76-16.35,2.32-32.84-4.68-48.42-7.54-16.76-20.57-25.94-38.98-26.57-14.72-.51-29.46-.25-44.2-.33-2.36-.01-4.72,0-7.8,0-.17-2.72-.43-5-.43-7.29C0,81.15-.02,54.3.02,27.46.05,9.63,9.49.05,27.28.04,179.2,0,331.12-.04,483.03.06c42.46.03,81.09,11.98,114.84,38.29,17.01,13.27,36.37,18.9,57.89,19.76,49.98,2.01,99.93,4.91,149.89,7.45,11.46.58,22.92,1.15,34.38,1.78,2.91.16,5.15.37,6.32-3.56,1.61-5.39,6.23-6.29,11.11-4.51,6.7,2.45,13.33,5.14,19.89,7.96,5.54,2.38,8.23,6.88,8.24,12.86.04,24.25.08,48.49,0,72.74-.02,6.5-3.19,10.99-9.44,13.35-7.45,2.82-14.82,5.88-22.68,9.02,4.73,8.26,9.97,16.18,13.9,24.69,2.74,5.93,5.43,12.77,5.09,19.03-.66,12.23-12.31,19.63-24.28,17.05-11.95-2.57-19.19-14.02-14.65-25.69,4.04-10.4,10.1-20.02,15.33-29.96.9-1.7,2.07-3.26,2.86-4.5-2.59-3.33-4.97-6.39-8.13-10.46-14.69.66-30.64,1.3-46.59,2.13-31.57,1.65-63.14,3.38-94.71,5.12-19.88,1.1-39.76,2.14-59.63,3.47-16.3,1.09-30.61,7.64-43.37,17.46-25.2,19.38-53.17,32.17-84.75,36.96-5.56.84-8.9-.23-12.15-5.42-13.3-21.29-27.23-42.18-41.33-63.85ZM284.89,24.23c-62.41,0-124.82,0-187.23.03-2.79,0-5.67.07-8.36.7-5.1,1.2-7.77,5.04-7.74,9.96.03,5.2,2.86,9.13,8.31,10.17,2.94.56,6.03.52,9.05.53,120.92.02,241.84.21,362.76-.11,32.7-.09,64.14,5.36,94.71,16.69,12.99,4.81,26.06,9.39,39.19,13.79,1.57.53,3.73-.71,5.61-1.13-1.07-1.39-1.86-3.28-3.27-4.09-6.19-3.56-12.69-6.58-18.84-10.21-42.63-25.17-88.54-37.15-138.17-36.48-52,.71-104.01.16-156.02.16Z"/>
  <path class="cls-1" d="M22.78,134.77c10.51.54,20.32.19,29.81,1.76,10.44,1.73,17.2,9.3,18.17,19.52,1.18,12.36,1.29,25.04-.1,37.36-1.44,12.75-9.18,18.5-22.27,19.2-7.55.4-15.14.29-22.71.36-.82,0-1.65-.25-2.9-.45v-77.76Z"/>
  <path class="cls-1" d="M718.52,285.54c17.47,10.79,20.98,29.15,7.23,41.14-5.08,4.43-13.14,6.88-20.07,7.48-13.32,1.15-26.82.34-40.8.34v-90.34c15.6,0,31.13-.86,46.52.32,9.29.71,15.2,7.86,17.46,17.07,2.48,10.11-2.21,17.53-10.32,24ZM677.41,293.22v29.81c10.22,0,19.95.4,29.64-.12,8.17-.44,13.48-6.56,13.79-14.5.31-7.95-4.55-14.38-12.99-15.01-10.03-.75-20.17-.18-30.44-.18ZM677.21,280.49c10.06,0,19.55.49,28.96-.16,6.87-.48,10.95-5.78,11.05-12.22.11-6.56-3.82-12.51-10.22-12.98-9.78-.72-19.66-.19-29.79-.19v25.56Z"/>
  <path class="cls-1" d="M6.56,243.68c17.7,0,34.99-.77,52.18.26,12.6.76,19.59,9.4,20.64,21.91,1,11.87-4.85,20.81-16.38,25-1.98.72-3.99,1.36-4.7,1.6,9.58,13.52,19.18,27.05,29.16,41.12-14.92,2.68-15.21,2.52-22.19-8.71-3.08-4.96-6.74-9.59-9.43-14.74-7.87-15.06-20.48-18.62-36.84-15.26v39.28H6.56v-90.46ZM19.13,283.45c12.64-.55,24.56-.44,36.3-1.82,7.57-.89,11.36-7.14,10.99-14.54-.33-6.71-4.41-12.15-11.65-12.61-11.75-.75-23.58-.2-35.64-.2v29.17Z"/>
  <path class="cls-1" d="M452.64,243.71c10.96-2.16,11.73-1.89,17.35,6.48,12.76,19.05,25.5,38.11,38.26,57.16,1.01,1.51,2.19,2.9,4.52,5.97v-70.09h11.38c0,30.17,0,60.3,0,90.44-10.38,2.43-11.44,2.06-16.96-6.19-12.39-18.52-24.75-37.05-37.15-55.56-1.3-1.95-2.76-3.8-5.37-7.38v69.58h-12.05v-90.42Z"/>
  <path class="cls-1" d="M393.67,336.1c-25.8.11-43.97-19.13-44.01-46.62-.05-29.06,17.18-48.11,43.62-48.24,25.88-.13,44.08,19.36,44.17,47.3.09,28.11-17.72,47.46-43.78,47.57ZM362.22,288.85c.55,4.27.76,8.61,1.7,12.8,3.12,13.91,14.54,23.14,28.75,23.55,14.41.42,25.55-8.03,29.69-22.18,2.81-9.61,2.76-19.07-.07-28.66-5.48-18.54-24.04-27.21-41.74-19.31-14.74,6.58-17.7,19.46-18.33,33.81Z"/>
  <path class="cls-1" d="M164.42,243.7v10.46c-9.14,0-17.95,0-26.76,0s-17.22,0-26.36,0v27.36h49.16v10.82h-49.21v31h55.12v10.9h-67.81v-90.53h65.86Z"/>
  <path class="cls-1" d="M178.03,305.3c5.13-.58,8.49-.96,11.74-1.33,8.59,18.18,17.23,23.29,34.72,20.1,3.68-.67,7.54-2.35,10.5-4.63,7.52-5.78,6.76-16.09-1.67-20.38-5.32-2.71-11.35-4.05-17.11-5.84-5.98-1.86-12.18-3.13-18.01-5.38-9.15-3.53-15.26-9.9-15.5-20.3-.24-10.33,4.35-18.19,13.82-22.25,13.88-5.95,27.87-5.86,41.11,2.05,7.51,4.48,10.94,11.4,11.3,21.54-3.68.32-7.4.64-10.98.95-5.52-16.02-21.47-22.56-36-14.47-3.39,1.89-6.76,6.85-6.92,10.54-.14,3.18,3.64,7.6,6.85,9.6,4.06,2.54,9.3,3.24,14.05,4.66,6.83,2.04,13.95,3.38,20.47,6.13,17.8,7.5,21.13,28.23,6.97,41.33-15.55,14.38-49.92,10.25-59.99-7.47-2.37-4.17-3.34-9.13-5.35-14.85Z"/>
  <path class="cls-1" d="M540.7,305.13c3.8-.42,7.36-.81,10.78-1.19,7.02,17.77,17.67,23.71,35.43,20.16,11.5-2.3,17.81-12.27,12.54-20.46-1.73-2.69-4.92-5.02-7.95-6.17-6.04-2.3-12.44-3.61-18.66-5.43-4.36-1.27-8.78-2.42-12.98-4.09-10.67-4.24-15.94-11.57-15.84-21.44.1-9.96,6-18.68,15.98-22.31,11.39-4.14,23.06-4.14,34.3.51,10.05,4.15,15.52,12.01,16.5,23.94-3.89.45-7.59.88-11.14,1.3-6.31-15.93-18.49-21.33-34.41-15.69-5.38,1.91-8.85,5.66-9.18,11.39-.31,5.48,3.06,8.98,8.03,10.51,10.74,3.3,21.76,5.76,32.33,9.51,18.63,6.6,23.06,28.78,8.49,41.79-3.13,2.8-7.18,5.17-11.2,6.28-16.2,4.45-31.83,3.99-44.94-8.3-5.59-5.24-8.01-12.07-8.05-20.3Z"/>
  <path class="cls-1" d="M268.89,243.37c15.37,0,30.5-.82,45.5.23,15.61,1.09,23.69,10.99,23.67,26.23-.02,15.21-8.76,25.36-24.05,27-7.92.85-15.97.6-23.96.81-2.76.07-5.53.01-9.06.01v36.45h-12.1v-90.72ZM280.74,269.84c0,4.11-.19,8.23.11,12.32.1,1.39,1.48,3.88,2.19,3.85,11.38-.47,22.89-.43,34.07-2.31,6.35-1.07,9.27-9.21,8.1-16.57-1.14-7.13-5.87-12-12.81-12.57-5.38-.44-10.81-.39-16.22-.4q-15.45-.05-15.43,15.67Z"/>
  <path class="cls-1" d="M886.01,243.5c-10.6,15.31-20.47,29.98-30.82,44.31-3.85,5.34-5.84,10.62-5.49,17.29.5,9.47.13,18.98.13,28.99h-12.72c0-9.04-.49-18.27.15-27.43.57-8.07-2.01-14.47-6.57-20.89-9.02-12.68-17.44-25.77-26.08-38.72-.66-.99-1.06-2.16-1.77-3.65,8.47-1.29,15.01-1.52,19.76,7.46,6.13,11.59,14.09,22.21,21.69,33.89,7.22-11.05,14.26-21.78,21.26-32.55q6.72-10.34,20.46-8.71Z"/>
  <path class="cls-1" d="M195.05,232.75h-53.2v-48.28c10.16-1.25,19.45-.56,25.91,8.77,8.85,12.77,17.66,25.57,27.28,39.5Z"/>
  <path class="cls-1" d="M476.6,232.68h-51.26c0-11.3-.05-22.45.08-33.59.01-1.13.86-2.49,1.72-3.34,5.66-5.57,11.42-11.04,17.72-17.08,10.39,17.68,20.72,35.26,31.75,54.02Z"/>
  <path class="cls-1" d="M306.42,159.5c14.86,24.01,29.71,48.02,45.13,72.94h-46.23v-72.69c.37-.08.73-.17,1.1-.25Z"/>
  <path class="cls-1" d="M750.24,243.18h11.96v80.3h44.38v10.68h-56.34v-90.99Z"/>
  <path class="cls-1" d="M141.38,136c12.89,0,25.16-.57,37.35.22,6.94.45,10.86,6.8,10.68,14.05-.17,7.19-4.39,13.21-11.24,13.79-10.96.92-22.01.91-33.03.97-1.25,0-3.56-2.01-3.6-3.16-.31-8.58-.17-17.17-.17-25.87Z"/>
  <path class="cls-1" d="M631.95,243.16h11.82v91.03h-11.82v-91.03Z"/>
</svg>